<svg width="25" height="19" viewBox="0 0 25 19" fill="none" xmlns="http://www.w3.org/2000/svg">
<g id="Group 549" opacity="0.3">
<path id="Vector" d="M12.312 2.74805C7.91365 2.74805 4.6933 5.04974 2.42188 9.89511C4.6933 14.7405 7.91365 17.0422 12.312 17.0422C16.713 17.0422 19.9334 14.7405 22.2021 9.89511C19.9307 5.04974 16.7103 2.74805 12.312 2.74805ZM12.2029 14.8474C9.55246 14.8474 7.40374 12.6301 7.40374 9.89511C7.40374 7.16009 9.55246 4.94281 12.2029 4.94281C14.8534 4.94281 17.0021 7.16009 17.0021 9.89511C17.0021 12.6301 14.8534 14.8474 12.2029 14.8474Z" fill="black" fill-opacity="0.15"/>
<path id="Vector_2" d="M24.1555 9.18421C21.5462 3.67102 17.6019 0.896484 12.3144 0.896484C7.02423 0.896484 3.08272 3.67102 0.473394 9.18698C0.368733 9.40926 0.314453 9.65204 0.314453 9.89786C0.314453 10.1437 0.368733 10.3865 0.473394 10.6088C3.08272 16.1219 7.02698 18.8965 12.3144 18.8965C17.6047 18.8965 21.5462 16.1219 24.1555 10.606C24.3674 10.1588 24.3674 9.63974 24.1555 9.18421ZM12.3144 16.9088C7.87474 16.9088 4.62409 14.6505 2.3313 9.89648C4.62409 5.1425 7.87474 2.88421 12.3144 2.88421C16.7542 2.88421 20.0048 5.1425 22.2976 9.89648C20.0076 14.6505 16.7569 16.9088 12.3144 16.9088Z" fill="white"/>
<path id="Vector_3" d="M12.1828 5.13184C9.56102 5.13184 7.43555 7.26512 7.43555 9.89654C7.43555 12.528 9.56102 14.6612 12.1828 14.6612C14.8046 14.6612 16.9301 12.528 16.9301 9.89654C16.9301 7.26512 14.8046 5.13184 12.1828 5.13184ZM12.1828 12.9286C10.5132 12.9286 9.16182 11.5723 9.16182 9.89654C9.16182 8.22077 10.5132 6.86446 12.1828 6.86446C13.8524 6.86446 15.2038 8.22077 15.2038 9.89654C15.2038 11.5723 13.8524 12.9286 12.1828 12.9286Z" fill="white"/>
</g>
</svg>
